ik_tiny_file
version=1
nRows=8
nColumns=40
inDegrees=yes
endheader
time	pelvis_tilt	pelvis_list	pelvis_rotation	pelvis_tx	pelvis_ty	pelvis_tz	hip_flexion_r	hip_adduction_r	hip_rotation_r	knee_angle_r	knee_angle_r_beta	ankle_angle_r	subtalar_angle_r	mtp_angle_r	hip_flexion_l	hip_adduction_l	hip_rotation_l	knee_angle_l	knee_angle_l_beta	ankle_angle_l	subtalar_angle_l	mtp_angle_l	lumbar_extension	lumbar_bending	lumbar_rotation	arm_flex_r	arm_add_r	arm_rot_r	elbow_flex_r	pro_sup_r	wrist_flex_r	wrist_dev_r	arm_flex_l	arm_add_l	arm_rot_l	elbow_flex_l	pro_sup_l	wrist_flex_l	wrist_dev_l
      2.08000000	     37.65034802	      0.27709509	     13.95682593	      0.00000000	      0.94000000	      0.00000000	     19.82023012	     -7.48651776	      0.00000000	     30.29936793	      0.52882373	     -2.43623493	      0.00000000	      0.00000000	     19.82023012	     -7.48651776	      0.00000000	     30.29936793	      0.52882373	     -2.43623493	      0.00000000	      0.00000000	    -37.53822291	     10.42640473	     -6.97586015	    -32.62577300	     17.15730200	     -1.86168922	     78.06985468	     32.30765019	      0.00000000	      4.35941185	     -1.09154494	    -13.98273063	     16.60575408	      0.09185264	     32.30765019	      0.00000000	      4.35941185
      2.10000000	     37.69122741	      0.35218922	     13.95425999	      0.00000000	      0.94000000	      0.00000000	     19.84309832	     -7.49364913	      0.00000000	     30.32415508	      0.52925635	     -2.43910786	      0.00000000	      0.00000000	     19.84309832	     -7.49364913	      0.00000000	     30.32415508	      0.52925635	     -2.43910786	      0.00000000	      0.00000000	    -37.75946265	     10.47661992	     -6.80868649	    -33.02217225	     17.57919239	     -2.74300376	     76.35668329	     32.33844432	      0.00000000	      4.36262530	     -0.89596649	    -14.03857258	     16.64718462	      0.09243100	     32.33844432	      0.00000000	      4.36262530
      2.12000000	     37.70304357	      0.42100659	     13.97266085	      0.00000000	      0.94000000	      0.00000000	     19.86244625	     -7.49966732	      0.00000000	     30.34513591	      0.52962253	     -2.44153833	      0.00000000	      0.00000000	     19.86244625	     -7.49966732	      0.00000000	     30.34513591	      0.52962253	     -2.44153833	      0.00000000	      0.00000000	    -37.65539399	     10.58311816	     -6.81603079	    -33.28033400	     17.67711808	     -4.43566479	     74.37631002	     32.36443393	      0.00000000	      4.36533052	     -1.02875830	    -14.00391192	     16.40250563	      0.09134473	     32.36443393	      0.00000000	      4.36533052
      2.14000000	     37.67476998	      0.48622517	     14.00402415	      0.00000000	      0.94000000	      0.00000000	     19.87889654	     -7.50477504	      0.00000000	     30.36297627	      0.52993391	     -2.44360474	      0.00000000	      0.00000000	     19.87889654	     -7.50477504	      0.00000000	     30.36297627	      0.52993391	     -2.44360474	      0.00000000	      0.00000000	    -37.53235929	     10.69056165	     -6.94868885	    -33.29911243	     16.83578090	     -5.48452886	     72.72803270	     32.38649281	      0.00000000	      4.36762207	     -1.08586993	    -13.90486765	     16.36407614	      0.09069415	     32.38649281	      0.00000000	      4.36762207
      2.16000000	     37.62528900	      0.57643537	     14.02151518	      0.00000000	      0.94000000	      0.00000000	     19.89397369	     -7.50945006	      0.00000000	     30.37932665	      0.53021927	     -2.44549863	      0.00000000	      0.00000000	     19.89397369	     -7.50945006	      0.00000000	     30.37932665	      0.53021927	     -2.44549863	      0.00000000	      0.00000000	    -37.50560428	     10.69814228	     -7.08608218	    -33.27680860	     15.76814592	     -6.32401081	     70.28341751	     32.40668360	      0.00000000	      4.36971618	     -1.07654573	    -13.89783801	     16.38425731	      0.09152104	     32.40668360	      0.00000000	      4.36971618
      2.18000000	     37.61974726	      0.65083453	     14.00942473	      0.00000000	      0.94000000	      0.00000000	     19.90661270	     -7.51336455	      0.00000000	     30.39303177	      0.53045847	     -2.44708627	      0.00000000	      0.00000000	     19.90661270	     -7.51336455	      0.00000000	     30.39303177	      0.53045847	     -2.44708627	      0.00000000	      0.00000000	    -37.61166338	     10.66591510	     -7.07085506	    -33.51279156	     15.62703018	     -6.43029819	     68.10044076	     32.42359019	      0.00000000	      4.37146718	     -0.96875328	    -13.98317006	     16.45431976	      0.09491754	     32.42359019	      0.00000000	      4.37146718
      2.20000000	     37.69902460	      0.71881415	     13.98678186	      0.00000000	      0.94000000	      0.00000000	     19.92510877	     -7.51909404	      0.00000000	     30.41306727	      0.53080816	     -2.44940995	      0.00000000	      0.00000000	     19.92510877	     -7.51909404	      0.00000000	     30.41306727	      0.53080816	     -2.44940995	      0.00000000	      0.00000000	    -37.77135992	     10.72885282	     -6.94623966	    -33.65065706	     16.31758013	     -7.59669925	     66.35896697	     32.44833353	      0.00000000	      4.37402803	     -0.89782081	    -14.03381493	     16.52450649	      0.09242583	     32.44833353	      0.00000000	      4.37402803
      2.22000000	     37.75753776	      0.78429952	     13.96135816	      0.00000000	      0.94000000	      0.00000000	     19.93622781	     -7.52252775	      0.00000000	     30.42512567	      0.53101862	     -2.45080659	      0.00000000	      0.00000000	     19.93622781	     -7.52252775	      0.00000000	     30.42512567	      0.53101862	     -2.45080659	      0.00000000	      0.00000000	    -37.74848421	     10.73884205	     -6.95918294	    -33.99655419	     16.04295973	     -8.87105111	     64.56151983	     32.46316488	      0.00000000	      4.37555913	     -1.05988234	    -14.08926645	     16.27021545	      0.09109734	     32.46316488	      0.00000000	      4.37555913
